<?xml version="1.0" standalone="no"?>
<!DOCTYPE svg PUBLIC "-//W3C//DTD SVG 1.1//EN" "http://www.w3.org/Graphics/SVG/1.1/DTD/svg11.dtd" >
<svg xmlns="http://www.w3.org/2000/svg" xmlns:xlink="http://www.w3.org/1999/xlink" version="1.1">
<metadata></metadata>
<defs>
<font id="stcaiyunregular" horiz-adv-x="1024" vert-adv-y="2048" >
<font-face units-per-em="2048" ascent="1638" descent="-410" />
<missing-glyph horiz-adv-x="499" />
<glyph horiz-adv-x="0" vert-adv-y="0" />
<glyph horiz-adv-x="682" />
<glyph unicode=" " horiz-adv-x="499" vert-adv-y="2121" />
<glyph unicode="!" horiz-adv-x="884" vert-adv-y="2121" d="M692 483q-25 0 -24 -6q0 -4 8 -14q74 -84 74 -195q0 -123 -89.5 -211t-211.5 -88q-123 0 -212.5 88t-89.5 211q0 117 78 201q6 6 6 8q0 6 -22 6l-23 953h512zM623 1360h-359l19 -801h333zM449 45q92 0 158.5 65.5t66.5 157.5t-66.5 159t-158.5 67t-159 -67t-67 -159 t67 -157.5t159 -65.5z" />
<glyph unicode="&#x22;" vert-adv-y="2121" d="M954 1436l-96 -668h-309l-33 240q-2 16 -4 16q-4 0 -6 -16l-35 -240h-309l-92 668h884zM866 1360h-321l71 -516h177zM479 1360h-321l71 -516h177z" />
<glyph unicode="#" horiz-adv-x="1382" vert-adv-y="2121" d="M1317 1069l-49 -360h-199l-6 -39h199l-50 -359h-200l-49 -342h-365l47 342h-35l-47 -342h-368l49 342h-178l53 359h176l6 39h-178l49 360h178l49 336h379l-49 -336h10l49 336h377l-47 -336h199zM1229 993h-199l47 336h-223l-49 -336h-164l49 336h-225l-49 -336h-176 l-29 -209h176l-25 -190h-178l-30 -207h178l-49 -342h213l47 342h190l-47 -342h211l49 342h199l29 207h-199l26 190h199zM791 784l-29 -190h-189l27 190h191zM717 709h-68l-4 -39h68z" />
<glyph unicode="$" horiz-adv-x="1163" vert-adv-y="2121" d="M993 848q-106 57 -157 57q-29 0 -29 -20q0 -12 12 -29q147 -207 148 -377q0 -182 -115 -315v-340h-508v160q-63 16 -174 65v494q135 -47 180 -47q33 0 33 28q0 45 -59 117q-49 61 -82 149.5t-33 157.5q0 203 135 348v256h508v-135q66 -18 141 -65v-504zM918 973v336 q-55 35 -142 49v119h-356v-213q-135 -129 -135 -316q0 -57 27.5 -132t70.5 -128q76 -92 76 -164q0 -102 -113 -102q-43 0 -100 18v-340q86 -41 174 -55v-145h356v295q115 117 115 282q0 145 -133 334q-43 59 -43 111q0 39 24.5 61.5t67.5 22.5q50 0 111 -33z" />
<glyph unicode="%" horiz-adv-x="1896" vert-adv-y="2121" d="M958 401l-167 -417h-277l303 747q6 18 -10 2q-123 -123 -293 -123q-172 0 -293 122t-121 292t121 291t293 121t292 -120t120 -292q0 -12 4 -12l166 407h274l-305 -753q-8 -16 -2 -17q4 0 12 10q119 135 305 136q172 0 293 -121t121 -291t-121 -292t-293 -122 q-170 0 -290.5 122t-120.5 292q0 27 -4 27q-3 -1 -7 -9zM514 686q139 0 237.5 99.5t98.5 238.5t-98.5 237.5t-237.5 98.5q-141 0 -239.5 -98.5t-98.5 -237.5t99.5 -238.5t238.5 -99.5zM514 1171q59 0 103.5 -44t44.5 -103t-44.5 -102t-103.5 -43q-61 0 -105 42t-44 103 q0 59 44 103t105 44zM514 948q31 0 54.5 22.5t23.5 53.5q0 33 -22.5 55.5t-55.5 22.5t-56.5 -22.5t-23.5 -55.5q0 -31 23.5 -53.5t56.5 -22.5zM1257 1343h-110l-520 -1284h112zM1380 45q139 0 238.5 99.5t99.5 238.5t-98 237.5t-240 98.5q-139 0 -237.5 -98.5t-98.5 -237.5 t98.5 -238.5t237.5 -99.5zM1384 530q61 0 105.5 -44t44.5 -103q0 -61 -44 -103t-106 -42q-59 0 -103 43t-44 102t44 103t103 44zM1384 307q33 0 56.5 22.5t23.5 53.5q0 33 -23.5 55.5t-56.5 22.5t-55 -22.5t-22 -55.5q0 -31 23 -53.5t54 -22.5z" />
<glyph unicode="&#x26;" horiz-adv-x="1560" vert-adv-y="2121" d="M1509 10h-503l-21 21q-92 -61 -213 -62q-193 0 -345.5 144.5t-152.5 345.5q0 193 146 346q-66 113 -66 225q0 186 128 315.5t311 129.5q188 0 314 -134.5t126 -347.5q0 -35 -4 -71h-299q-18 0 -19 -7q0 -4 7 -12l126 -190h267q6 -80 6 -138q0 -125 -39 -210zM1370 86 l-180 274q53 96 53 213q0 31 -2 64h-237l-242 360q-14 25 -14 45q0 23 15 37.5t40 14.5q59 0 65 -97h291q2 20 2 41q0 152 -107.5 256.5t-258.5 104.5q-145 0 -255 -104.5t-110 -264.5q0 -121 90 -235q-168 -139 -168 -334q0 -168 122 -288t286 -120q125 0 237 78l39 -45 h334zM813 393q-37 -27 -72 -26q-37 0 -63.5 30.5t-26.5 67.5q0 51 45 86z" />
<glyph unicode="'" horiz-adv-x="512" vert-adv-y="2121" d="M512 1436l-96 -668h-324l-92 668h512zM424 1360h-336l72 -516h190z" />
<glyph unicode="(" horiz-adv-x="751" vert-adv-y="2121" d="M772 -242h-424q-131 203 -197.5 385.5t-66.5 452.5q0 256 65.5 443.5t198.5 396.5h422q-119 -250 -175 -449t-56 -387q0 -193 57 -392.5t176 -449.5zM653 -166q-190 397 -190 766q0 362 188 760h-262q-119 -186 -174 -359.5t-55 -404.5q0 -244 55 -410t174 -352h264z" />
<glyph unicode=")" horiz-adv-x="751" vert-adv-y="2121" d="M399 1436q133 -209 199 -396.5t66 -443.5q0 -270 -67 -452.5t-198 -385.5h-424q119 250 176.5 450t57.5 392q0 188 -56.5 387t-175.5 449h422zM358 -166q119 186 174.5 352t55.5 410q0 231 -55.5 404.5t-174.5 359.5h-262q188 -397 189 -760q0 -369 -191 -766h264z" />
<glyph unicode="*" vert-adv-y="2121" d="M938 1087l-193 -112q12 -37 13 -78q0 -106 -86 -260l-166 145q-63 -41 -174 -41q-68 0 -160 15l90 213q-106 72 -145 315l227 -18q41 117 256 225l51 -229q68 -2 130.5 -40.5t156.5 -134.5zM815 1104q-78 82 -172 82q-23 0 -51 -4l-45 196q-133 -66 -141 -194l-199 16 q27 -156 153 -196l-79 -187q33 -6 61 -6q102 0 164 74l145 -129q37 66 37 125q0 66 -43 123z" />
<glyph unicode="+" horiz-adv-x="1531" vert-adv-y="2121" d="M1321 487h-342v-360h-426v360h-342v418h342v361h426v-361h342v-418zM1245 563v266h-342v361h-274v-361h-342v-266h342v-360h274v360h342z" />
<glyph unicode="," horiz-adv-x="763" vert-adv-y="2121" d="M303 -88q-100 29 -159.5 109.5t-59.5 177.5q0 121 88 209t209 88t209 -88.5t88 -208.5q0 -268 -375 -396v109zM379 -90q106 37 164.5 116.5t58.5 172.5q0 90 -65.5 155.5t-155.5 65.5t-155.5 -65.5t-65.5 -155.5t64.5 -156t154.5 -66v-67z" />
<glyph unicode="-" horiz-adv-x="456" vert-adv-y="2121" d="M518 406h-579v399h579v-399zM442 481v248h-428v-248h428z" />
<glyph unicode="." horiz-adv-x="774" vert-adv-y="2121" d="M385 567q123 0 211 -88t88 -211t-88 -211t-211 -88t-211 88t-88 211t88 211t211 88zM385 45q92 0 157.5 65.5t65.5 157.5t-65.5 158t-157.5 66t-157.5 -66t-65.5 -158t65.5 -157.5t157.5 -65.5z" />
<glyph unicode="/" horiz-adv-x="710" vert-adv-y="2121" d="M692 1393l-385 -1678h-325l385 1678h325zM598 1317h-172l-350 -1526h172z" />
<glyph unicode="0" horiz-adv-x="1163" vert-adv-y="2121" d="M1116 575q0 -281 -144.5 -443.5t-389.5 -162.5q-246 0 -389.5 162t-143.5 444v293q0 281 142.5 444t390.5 163t391 -162t143 -445v-293zM1040 575v293q0 248 -122.5 389.5t-335.5 141.5t-335 -142.5t-122 -388.5v-293q0 -246 123 -388t334 -142q213 0 335.5 142 t122.5 388zM674 502q0 -119 -92 -119t-93 119v440q0 119 93 119q92 0 92 -119v-440zM598 502v440q0 23 -3 33t-15 10q-14 0 -15 -43v-440q0 -43 17 -43q16 0 16 43z" />
<glyph unicode="1" horiz-adv-x="1163" vert-adv-y="2121" d="M840 0h-514v1436h514v-1436zM764 76v1284h-363v-1284h363z" />
<glyph unicode="2" horiz-adv-x="1163" vert-adv-y="2121" d="M80 0l248 467q6 10 6 14q0 6 -10 15q-139 98 -204 208.5t-65 245.5q0 215 152.5 370t370.5 155q223 0 372.5 -157t149.5 -368q0 -123 -56 -233l-94 -187h164v-530h-1034zM1038 76v379h-213l152 297q47 94 47 198q0 180 -128 314.5t-318 134.5q-186 0 -316.5 -132 t-130.5 -317q0 -242 215 -383l162 293q-31 33 -31 72q0 37 23.5 61.5t62.5 24.5q88 0 88 -72q0 -39 -28 -92l-414 -778h829zM567 915q4 0 7.5 7.5t3.5 11.5q0 8 -15 8q-8 0 -8 -8q0 -4 4 -11.5t8 -7.5z" />
<glyph unicode="3" horiz-adv-x="1163" vert-adv-y="2121" d="M1028 1436l-231 -549q199 -154 198 -410q0 -217 -156.5 -362.5t-392.5 -145.5q-143 0 -292 60v557q147 -102 229 -103q68 0 68 72q0 55 -67 77.5t-210 22.5l92 258h-108v523h870zM229 80q109 -43 220 -43q199 0 335 126t136 314q0 125 -52.5 217t-162.5 166l208 500h-680 v-371h144l-94 -258q111 0 177 -49t66 -127q0 -74 -43 -118t-110 -44q-70 0 -144 49v-362z" />
<glyph unicode="4" horiz-adv-x="1163" vert-adv-y="2121" d="M1133 0h-510v367q0 18 -17 18h-604l444 1051h687v-1436zM1057 76v1284h-561l-379 -899h499v278h-77l159 318v-981h359z" />
<glyph unicode="5" horiz-adv-x="1163" vert-adv-y="2121" d="M1004 909h-140q-16 0 -16 -4q0 -2 10 -10q182 -156 182 -418q0 -215 -158.5 -361.5t-392.5 -146.5q-184 0 -368 97v485q199 -100 299 -100q82 0 82 69q0 45 -46 71.5t-128 26.5q-100 0 -232 -40l176 858h732v-527zM197 113q143 -74 290 -74q199 0 338.5 126t139.5 312 q0 164 -94.5 282t-274.5 167l16 59h316v375h-594l-139 -674q57 18 116 19q109 0 188 -55.5t79 -129.5q0 -66 -49.5 -106.5t-131.5 -40.5q-94 0 -200 55v-315z" />
<glyph unicode="6" horiz-adv-x="1163" vert-adv-y="2121" d="M809 1323l-78 -217q-4 -10 -4 -14q0 -10 18 -19q213 -102 305.5 -225t92.5 -311q0 -240 -164 -404t-401 -164q-227 0 -395.5 165t-168.5 388q0 102 74 305l242 666zM375 1395l-215 -594q-70 -182 -70 -279q0 -193 145.5 -335t342.5 -142q207 0 348 142.5t141 349.5 q0 174 -90 285.5t-283 191.5l-153 -367q16 4 30 4q53 0 92 -36.5t39 -90.5q0 -53 -37.5 -91t-91.5 -38q-49 0 -85.5 37t-36.5 88q0 27 10 55l250 701zM571 469q25 0 43.5 15.5t18.5 39.5q0 23 -18.5 41.5t-41.5 18.5t-39 -18.5t-16 -43.5q0 -20 14 -36.5t39 -16.5z" />
<glyph unicode="7" horiz-adv-x="1163" vert-adv-y="2121" d="M1118 1436l-420 -1436h-548l290 913h-364v523h1042zM1016 1360h-864v-371h391l-291 -913h389z" />
<glyph unicode="8" horiz-adv-x="1163" vert-adv-y="2121" d="M991 821q63 -74 93 -149.5t30 -179.5q0 -223 -151.5 -373t-380.5 -150q-227 0 -380 148.5t-153 371.5q0 197 121 330q-51 98 -51 209q0 182 129 314.5t332 132.5t333.5 -130.5t130.5 -314.5q0 -109 -53 -209zM266 811q-74 -72 -107.5 -145.5t-33.5 -176.5 q0 -190 131 -317t326 -127t325.5 127t130.5 317q0 100 -33.5 173t-107.5 149q70 100 70 217q0 154 -109.5 262.5t-277.5 108.5t-276.5 -109.5t-108.5 -261.5q-1 -119 71 -217zM578 1122q43 0 75.5 -32.5t32.5 -77.5t-32.5 -78t-75.5 -33t-76 33t-33 78t33 77.5t76 32.5z M578 971q14 0 26 12t12 29q0 16 -12 28.5t-26 12.5t-26.5 -12.5t-12.5 -28.5t12.5 -28.5t26.5 -12.5zM580 637q66 0 111.5 -46t45.5 -112q0 -63 -47 -109t-110 -46t-110.5 46t-47.5 109q0 66 46 112t112 46zM580 393q35 0 61.5 25.5t26.5 60.5q0 37 -27 62.5t-61 25.5 q-35 0 -61.5 -25.5t-26.5 -62.5q0 -35 26.5 -60.5t61.5 -25.5z" />
<glyph unicode="9" horiz-adv-x="1163" vert-adv-y="2121" d="M356 119l74 209q2 8 2 16q0 18 -24 31q-188 90 -289 214t-101 316q0 240 164 405t404 165q225 0 394 -165t169 -390q0 -106 -72 -306l-239 -665zM791 47l215 594q68 182 67 279q0 195 -146.5 337t-340.5 142q-207 0 -349.5 -143.5t-142.5 -350.5q0 -172 91 -283.5 t286 -195.5l152 371q-16 -4 -35 -4q-51 0 -88 34.5t-37 90.5q0 53 36 89.5t87 36.5q53 0 91 -35.5t38 -84.5q0 -25 -13 -58l-249 -702zM588 870q25 0 37 14.5t12 33.5q0 20 -14.5 35.5t-36.5 15.5q-20 0 -34.5 -14.5t-14.5 -36.5q0 -48 51 -48z" />
<glyph unicode=":" horiz-adv-x="774" vert-adv-y="2121" d="M242 539q0 6 -15 14q-59 35 -100 102.5t-41 151.5q0 123 89 212t212 89t212 -89t89 -212q0 -80 -39 -147.5t-104 -106.5q-14 -8 -15 -14q0 -4 11 -11q68 -37 107.5 -106.5t39.5 -151.5q0 -123 -89 -212t-212 -89t-212 89t-89 212q0 78 38 146.5t105 109.5q13 9 13 13z M387 584q92 0 158.5 65.5t66.5 157.5t-66.5 158.5t-158.5 66.5t-158.5 -66.5t-66.5 -158.5t66.5 -157.5t158.5 -65.5zM387 45q92 0 158.5 66.5t66.5 158.5t-66.5 159t-158.5 67t-158.5 -67t-66.5 -159t66.5 -158.5t158.5 -66.5z" />
<glyph unicode=";" horiz-adv-x="774" vert-adv-y="2121" d="M309 -23q-100 29 -159.5 110t-59.5 177q0 80 42 151.5t112 108.5q12 6 12 11q0 4 -12 10q-72 39 -115 109.5t-43 152.5q0 123 89 212t212 89t212 -89t89 -212q0 -82 -42 -152.5t-111 -107.5q-14 -8 -15 -12q0 -2 12 -11q76 -45 114 -114.5t38 -145.5q0 -268 -375 -395 v108zM387 584q92 0 158.5 65.5t66.5 157.5t-66.5 158.5t-158.5 66.5t-158.5 -66.5t-66.5 -158.5t66.5 -157.5t158.5 -65.5zM385 -25q106 37 164.5 117t58.5 172t-65.5 157.5t-155.5 65.5t-155.5 -65.5t-65.5 -157.5q0 -90 64.5 -155.5t154.5 -65.5v-68z" />
<glyph unicode="&#x3c;" vert-adv-y="2121" d="M1010 -33l-985 537v375l985 538v-510l-389 -217l389 -213v-510zM934 94v338l-469 258l469 260v340l-834 -456v-285z" />
<glyph unicode="=" horiz-adv-x="1531" vert-adv-y="2121" d="M1321 340h-1110v713h1110v-713zM1245 741v236h-958v-236h958zM1245 416v237h-958v-237h958z" />
<glyph unicode="&#x3e;" vert-adv-y="2121" d="M995 504l-985 -537v510l391 213l-391 215v512l985 -538v-375zM920 549v285l-834 456v-340l471 -260l-471 -258v-338z" />
<glyph unicode="?" horiz-adv-x="1087" vert-adv-y="2121" d="M47 870q0 279 139.5 442t360.5 163q207 0 350 -139.5t143 -342.5q0 -264 -217 -368q-29 -14 -33 -45t-4 -115q-12 0 -12 -6q0 -2 2 -4q66 -82 66 -187q0 -123 -88 -211t-211 -88t-211 88t-88 211q0 98 59 178q6 8 6 13q0 6 -22 6v149q0 164 47 236q6 10 6 14q0 6 -16 6 h-277zM711 555q0 61 11 85t69 52q174 86 174 301q0 172 -122 289t-296 117q-182 0 -303 -128t-121 -325h323q2 127 93 127q35 0 58.5 -23.5t23.5 -56.5q0 -57 -74 -90l-64 -29q-72 -31 -96.5 -87t-24.5 -173v-59h349zM522 969q6 0 17.5 7t11.5 17t-12 11q-23 0 -23 -27 q0 -8 6 -8zM543 45q92 0 157.5 65.5t65.5 157.5t-65.5 158t-157.5 66t-158 -66t-66 -158t66 -157.5t158 -65.5z" />
<glyph unicode="@" horiz-adv-x="1531" vert-adv-y="2121" d="M1300 80q-176 -63 -277 -87t-194 -24q-352 0 -566 213t-214 539t215 540t535 214q301 0 499.5 -182.5t198.5 -456.5q0 -152 -67.5 -273t-186.5 -182q-14 -8 -14 -16q0 -4 2 -13zM799 678q-29 -12 -54 -12q-55 0 -55 61q0 47 35 81t78 34q76 0 76 -74q0 -18 -5 -37 l-34 -137q-8 -35 -9 -62q0 -129 195 -129q170 0 282.5 124t112.5 309q0 242 -177 402.5t-445 160.5q-287 0 -480.5 -192.5t-193.5 -485.5t192.5 -484.5t511.5 -191.5q156 0 379 82l-37 145q-225 -84 -340 -84q-254 0 -400 146.5t-146 384.5q0 233 147.5 384.5t372.5 151.5 q209 0 339 -117.5t130 -301.5q0 -115 -53.5 -205t-114.5 -90q-41 0 -41 43q0 16 8 49l41 176q6 25 6 49q0 94 -73.5 158.5t-194.5 64.5q-168 0 -290 -126t-122 -291q0 -106 58.5 -165t167.5 -59q23 0 49 2zM1141 635q-2 -12 1 -14.5t21.5 23.5t31.5 79t13 113 q0 158 -111.5 256t-291.5 98q-197 0 -326 -133t-129 -338q0 -207 130 -336t351 -129q76 0 173.5 31.5t129 44t31.5 18.5t-8 6q-4 0 -14 -2q-61 -14 -127 -14q-76 0 -135.5 19.5t-83.5 54.5q-8 12 -15 12q-6 0 -10 -16q-6 -20 -18.5 -25.5t-65.5 -5.5q-313 0 -313 287 q0 193 141 338t336 145q154 0 244 -82t90 -205q0 -33 -8 -65zM815 764q0 12 -12 12q-18 0 -32.5 -14t-14.5 -29q0 -4 6 -4t29.5 10.5t23.5 24.5z" />
<glyph unicode="A" horiz-adv-x="1212" vert-adv-y="2121" d="M1147 -31h-533v334q0 12 -8 12h-10v-346h-535v932q0 274 148.5 424t421.5 150q262 0 389 -137.5t127 -422.5v-946zM1071 45v870q0 246 -107.5 365t-332.5 119q-236 0 -365 -130t-129 -368v-856h383v346h109v336h-109v162q0 133 90 133q43 0 61.5 -29.5t18.5 -103.5v-844 h381zM621 815v74q0 43 -2.5 53t-12.5 10t-13 -11t-3 -52v-92h18q13 0 13 18z" />
<glyph unicode="B" horiz-adv-x="1169" vert-adv-y="2121" d="M1034 780q156 -117 156 -334q0 -205 -131 -325.5t-348 -120.5h-619v1436h543q492 0 491 -402q0 -145 -92 -254zM608 76h103q182 0 292.5 100t110.5 270q0 229 -207 320q143 109 144 268q0 326 -416 326h-467v-1284h375v940h78q94 -2 94 -68q0 -72 -107 -71v-342h74 q96 0 96 -62q0 -37 -23.5 -52t-80.5 -15h-66v-330z" />
<glyph unicode="C" horiz-adv-x="1540" vert-adv-y="2121" d="M1546 797q23 0 23 -9q0 -94 -63.5 -278t-168 -303t-247 -178.5t-320.5 -59.5q-342 0 -567.5 224.5t-225.5 562.5q0 219 105.5 403t291 288.5t406.5 104.5q152 0 284 -49t237.5 -150.5t185.5 -271.5t80 -245q0 -12 -17 -15l-188 -14q-6 0 -10 -1t-2 -2t4 -1h8zM1485 733 l-424 12q-33 -299 -297 -299q-127 0 -210 88.5t-83 221.5q0 139 85 229t214 90q205 0 277 -225l434 31q-61 289 -250 442.5t-451 153.5q-307 0 -517 -208t-210 -513t204 -508t513 -203q297 0 483.5 177t231.5 511zM985 754q0 102 -60.5 173.5t-154.5 71.5 q-96 0 -159.5 -68.5t-63.5 -174.5q0 -100 61.5 -167t155.5 -67q100 0 160.5 67t60.5 165z" />
<glyph unicode="D" horiz-adv-x="1499" vert-adv-y="2121" d="M514 0h-422v1436h574q377 0 593 -192.5t216 -516.5t-210 -529.5t-540 -205.5q-61 0 -130 4t-81 4zM610 72q104 -4 115 -4q297 0 485.5 184t188.5 475q0 289 -195.5 461t-537.5 172h-498v-1284h381v913h129q330 0 330 -262q0 -279 -336 -278h-62v-377zM643 524h29 q260 0 260 203q0 186 -254 186h-53v-368q0 -14 4 -17.5t14 -3.5z" />
<glyph unicode="E" horiz-adv-x="987" vert-adv-y="2121" d="M950 0h-375q-248 0 -380 121t-132 348v502q0 221 126 343t356 122h405v-523h-14q-10 0 -10 -20v-361q0 -14 12 -14h12v-518zM874 76v366h-256q-70 0 -89 13.5t-19 52.5q0 37 20.5 51t71.5 14h248v287h-209q-57 0 -83 13.5t-26 52.5q0 63 99 63h243v371h-329 q-193 0 -299.5 -102.5t-106.5 -286.5v-502q0 -190 113 -291.5t323 -101.5h299z" />
<glyph unicode="F" horiz-adv-x="985" vert-adv-y="2121" d="M1118 1190l-463 -338q-25 82 -34 102.5t-19 20.5t-10 -47v-84h127v-494h-127v-350h-535v887q0 260 159 424t380 164q143 0 278 -73t244 -212zM1010 1204q-76 98 -179.5 149.5t-216.5 51.5q-195 0 -338 -142.5t-143 -375.5v-811h383v350h127v342h-127v160q0 123 86 123 q70 0 94 -74z" />
<glyph unicode="G" horiz-adv-x="1255" vert-adv-y="2121" d="M1323 883q156 -193 156 -400q0 -213 -161 -363.5t-390 -150.5q-184 0 -352 102.5t-260.5 279.5t-90.5 380q0 315 204 529.5t501 214.5q150 0 307 -58v-514q0 -20 12 -20h74zM1286 807h-364v-293h90q59 0 59 -37q0 -49 -88 -49q-133 0 -213 83t-80 206q0 125 82 216 t211 91q86 0 178 -43v383q-111 41 -223 41q-264 0 -450.5 -194.5t-186.5 -481.5q0 -182 82 -342t231.5 -251t313.5 -91q199 0 338 130t139 317q0 168 -119 315zM1161 883q12 0 13 2q0 6 -75 30.5t-134 24.5q-92 0 -144.5 -69.5t-52.5 -153.5q0 -68 30.5 -117t43.5 -49 q4 0 4 12v320h315z" />
<glyph unicode="H" horiz-adv-x="1267" vert-adv-y="2121" d="M643 985v451h533v-1436h-533v471q0 14 -8 14h-12v-485h-533v1436h533v-461h10q10 0 10 10zM1100 76v1284h-381v-1284h381zM653 561v338h-106v461h-381v-1284h381v485h106z" />
<glyph unicode="I" horiz-adv-x="679" vert-adv-y="2121" d="M606 0h-532v1436h532v-1436zM530 76v1284h-380v-1284h380z" />
<glyph unicode="J" horiz-adv-x="622" vert-adv-y="2121" d="M582 494q0 -229 -132.5 -377t-332.5 -148q-70 0 -195 43v529q76 -27 103 -27q25 0 24 29v893h533v-942zM506 494v866h-381v-817q0 -121 -74 -121q-23 0 -53 12v-368q66 -20 119 -21q170 0 279.5 126t109.5 323z" />
<glyph unicode="K" horiz-adv-x="1320" vert-adv-y="2121" d="M629 344v-344h-533v1436h533v-322q0 -10 4 -10t12 12l209 320h571l-436 -662l422 -774h-602l-166 350q-8 16 -12 17q-2 0 -2 -23zM565 684l291 -608h428l-383 702l383 582h-389l-330 -504q-4 -8 -8 -8t-4 12v500h-381v-1284h381v606q0 14 4 14q2 0 8 -12z" />
<glyph unicode="L" horiz-adv-x="688" vert-adv-y="2121" d="M752 0h-179q-244 0 -381 141.5t-137 393.5v901h535v-842q0 -47 14 -59.5t51 -12.5h97v-522zM676 76v370h-21q-82 0 -111.5 28t-29.5 120v766h-383v-825q0 -215 118 -337t324 -122h103z" />
<glyph unicode="M" horiz-adv-x="1662" vert-adv-y="2121" d="M1587 0h-481q-16 0 -16 16v910q0 20 -15 20q-14 0 -14 -26v-904q0 -16 -14 -16h-433q-12 0 -12 12v908q0 27 -14 26q-14 0 -15 -26v-906q0 -14 -14 -14h-483v1010q0 205 126 335t324 130q186 0 308 -132q117 131 319 132q211 0 322.5 -128t111.5 -372v-975zM1511 76v899 q0 207 -92 315.5t-266 108.5q-111 0 -186.5 -44t-135.5 -138q-106 182 -305 182q-166 0 -270 -108.5t-104 -280.5v-934h383v844q0 102 57 102q31 0 40 -23.5t9 -78.5v-844h381v850q0 96 57 96q29 0 39 -23.5t10 -78.5v-844h383z" />
<glyph unicode="N" horiz-adv-x="1206" vert-adv-y="2121" d="M1143 0h-535v905q0 43 -6 43q-4 0 -4 -43v-905h-535v918q0 252 152 404.5t406 152.5t388 -146.5t134 -423.5v-905zM1067 76v829q0 240 -114.5 367t-331.5 127q-219 0 -350.5 -132t-131.5 -349v-842h383v829q0 117 78 117q84 0 84 -117v-829h383z" />
<glyph unicode="O" horiz-adv-x="1542" vert-adv-y="2121" d="M772 1475q199 0 373 -101.5t275.5 -277.5t101.5 -375t-101.5 -374t-275.5 -276.5t-373 -101.5t-373 101.5t-275 276.5t-101 374t101 375t275 277.5t373 101.5zM772 45q180 0 336 91t247 248t91 337t-91 338t-248 249t-335 91t-334.5 -91t-248 -249t-91.5 -338t91.5 -337 t247 -248t335.5 -91zM770 1022q121 0 209 -89t88 -212t-87 -211t-210 -88t-210 88t-87 211t88 212t209 89zM770 498q92 0 156.5 65.5t64.5 157.5t-65.5 158.5t-155.5 66.5t-155.5 -66.5t-65.5 -158.5t64.5 -157.5t156.5 -65.5z" />
<glyph unicode="P" horiz-adv-x="1228" vert-adv-y="2121" d="M57 0v883q0 307 176.5 449.5t389.5 142.5q225 0 381.5 -154t156.5 -381t-137 -358t-387 -131h-31q-14 0 -14 -19v-432h-535zM578 526h59q215 0 331.5 111t116.5 303q0 195 -134 327t-328 132q-135 0 -255 -66.5t-177.5 -172t-57.5 -277.5v-807h383v848q0 109 90 108 q88 0 88 -80q0 -88 -116 -88v-338zM596 930q33 0 33 22q0 14 -23 15q-25 0 -24 -27q0 -10 14 -10z" />
<glyph unicode="Q" horiz-adv-x="1540" vert-adv-y="2121" d="M514 23q-227 80 -359 274.5t-132 427.5q0 201 100 375t275 274.5t374 100.5t374 -100.5t275.5 -274.5t100.5 -375q0 -233 -134.5 -428t-361.5 -274v-134h-512v134zM950 80q223 57 359.5 239.5t136.5 405.5q0 279 -198.5 476.5t-475.5 197.5q-276 0 -475 -197.5 t-199 -476.5q0 -223 134.5 -406.5t357.5 -238.5v-115h360v115zM602 489q-59 39 -92 102.5t-33 135.5q0 121 87 208t208 87t208 -87t87 -208q0 -154 -127 -240v138h-338v-136zM973 694q25 0 24 33q0 92 -66.5 158.5t-158.5 66.5t-158.5 -66.5t-66.5 -158.5q0 -23 4 -28t16 -5 h406z" />
<glyph unicode="R" horiz-adv-x="1224" vert-adv-y="2121" d="M1307 0h-566l-102 231q-6 10 -8 11q-4 0 -4 -21v-221h-533v1436h563q262 0 412 -138.5t150 -365.5q0 -207 -156 -348zM1194 76l-221 530q170 131 170 326q0 193 -130 310.5t-356 117.5h-487v-1284h381v938h67q139 0 140 -90q0 -104 -121 -105h-31v-330l185 -413h403z M627 895q31 0 43 5t12 24q0 14 -55 14v-43z" />
<glyph unicode="S" horiz-adv-x="847" vert-adv-y="2121" d="M836 903q-125 43 -131 43q-35 0 -35 -43q0 -27 20 -63l29 -54q90 -158 90 -311q0 -199 -150.5 -352.5t-373.5 -153.5q-137 0 -269 62v559q147 -94 191 -94q23 0 22 22q0 12 -43 86q-96 166 -96 338q0 213 152.5 373t361.5 160q96 0 232 -45v-527zM760 1008v366 q-70 25 -156 25q-178 0 -308 -137.5t-130 -319.5q0 -150 86 -301q53 -92 53 -123q0 -43 -30.5 -70.5t-77.5 -27.5q-51 0 -105 33v-373q90 -41 189 -41q186 0 319 130t133 308q0 131 -80 273l-28 51q-33 55 -33 104q0 53 33.5 85t74.5 32q15 0 60 -14z" />
<glyph unicode="T" horiz-adv-x="1054" vert-adv-y="2121" d="M1085 915h-290v-915h-533v915h-293v521h1116v-521zM1010 991v369h-965v-369h293v-915h381v915h291z" />
<glyph unicode="U" horiz-adv-x="1206" vert-adv-y="2121" d="M1141 539q0 -276 -134.5 -423t-388.5 -147t-405.5 152.5t-151.5 404.5v910h535v-897q0 -43 4 -43q6 0 6 43v897h535v-897zM1065 539v821h-383v-821q0 -117 -84 -117q-78 0 -78 117v821h-383v-834q0 -217 131 -349t350 -132q217 0 332 127t115 367z" />
<glyph unicode="V" horiz-adv-x="1069" vert-adv-y="2121" d="M1196 1436l-674 -1633l-667 1633h612l63 -219l72 219h594zM1083 1360h-426l-131 -402l-116 402h-443l555 -1358z" />
<glyph unicode="W" horiz-adv-x="1662" vert-adv-y="2121" d="M1587 469q0 -244 -111.5 -372t-322.5 -128q-203 0 -319 131q-121 -131 -308 -131q-199 0 -324.5 130t-125.5 335v1002h483q14 0 14 -15v-897q0 -27 15 -26q14 0 14 26v899q0 12 12 13h433q14 0 14 -17v-895q0 -27 14 -26q14 0 15 20v901q0 16 16 17h481v-967zM1511 469 v891h-383v-836q0 -55 -10 -78.5t-39 -23.5q-57 0 -57 96v842h-381v-836q0 -55 -9 -78.5t-40 -23.5q-57 0 -57 102v836h-383v-926q0 -172 104 -280.5t270 -108.5q199 0 305 182q59 -94 135 -138t187 -44q174 0 266 108.5t92 315.5z" />
<glyph unicode="X" horiz-adv-x="1019" vert-adv-y="2121" d="M1180 0h-574l-104 207l-88 -207h-576l395 727l-372 709h569l96 -189l76 189h567l-374 -701zM1055 76l-346 659l333 625h-389l-121 -293l-149 293h-397l333 -635l-352 -649h395l134 311l157 -311h402z" />
<glyph unicode="Y" horiz-adv-x="1030" vert-adv-y="2121" d="M1202 1436l-426 -670v-766h-532v766l-430 670h567l127 -203l137 203h557zM1065 1360h-379l-180 -266l-166 266h-387l366 -572v-712h381v712z" />
<glyph unicode="Z" horiz-adv-x="1058" vert-adv-y="2121" d="M1145 1436l-400 -916h355v-520h-1161l397 913h-379v523h1188zM1028 1360h-995v-371h420l-398 -913h969v368h-395z" />
<glyph unicode="[" horiz-adv-x="751" vert-adv-y="2121" d="M723 -242h-686v1678h686v-383h-236v-912h236v-383zM647 -166v232h-235v1062h235v232h-534v-1526h534z" />
<glyph unicode="\" horiz-adv-x="710" vert-adv-y="2121" d="M719 -242h-326l-385 1678h326zM625 -166l-351 1526h-172l351 -1526h172z" />
<glyph unicode="]" horiz-adv-x="751" vert-adv-y="2121" d="M711 -242h-686v383h235v912h-235v383h686v-1678zM635 -166v1526h-535v-232h236v-1062h-236v-232h535z" />
<glyph unicode="^" vert-adv-y="2121" d="M1092 647h-465l-113 281l-115 -281h-467l338 789h484zM977 723l-275 637h-380l-275 -637h301l166 405l164 -405h299z" />
<glyph unicode="_" vert-adv-y="2121" d="M1069 -387h-1114v352h1114v-352zM993 -311v200h-962v-200h962z" />
<glyph unicode="`" vert-adv-y="2121" d="M825 1028h-399l-377 371h440zM655 1104l-198 219h-224l224 -219h198z" />
<glyph unicode="a" horiz-adv-x="1204" vert-adv-y="2121" d="M1145 0h-387q-43 0 -58 -4q-66 -16 -116 -16q-244 0 -408 161.5t-164 401.5q0 233 166 399t400 166q264 0 415.5 -153.5t151.5 -419.5v-535zM1069 76v459q0 231 -131 364t-360 133q-203 0 -346.5 -143.5t-143.5 -345.5q0 -207 142.5 -347.5t353.5 -140.5q39 0 80 8v363 q-41 -23 -84 -23q-61 0 -97.5 37t-36.5 92q0 57 41 98.5t97 41.5q57 0 95 -44t38 -118v-434h352zM567 481q31 0 52.5 12.5t21.5 32.5t-15.5 46t-41.5 26q-25 0 -43.5 -19.5t-18.5 -43.5q0 -54 45 -54z" />
<glyph unicode="b" horiz-adv-x="1185" vert-adv-y="2121" d="M541 1436v-320q0 -12 11 -15t60 -3q227 0 392 -165t165 -398q0 -236 -165.5 -401t-407.5 -165q-240 0 -399.5 167t-159.5 431v869h504zM113 1360v-793q0 -231 138 -376.5t345 -145.5q211 0 354.5 142.5t143.5 347.5q0 201 -142.5 344t-339.5 143q-33 0 -94 -6v-389 q47 33 96 32q51 0 87 -36.5t36 -96.5q0 -55 -40 -95t-97 -40q-135 0 -135 189v780h-352zM545 530q0 -25 15 -44t40 -19q27 0 44.5 17.5t17.5 41.5q0 23 -16.5 39.5t-41.5 16.5q-18 0 -38.5 -12.5t-20.5 -39.5z" />
<glyph unicode="c" horiz-adv-x="1179" vert-adv-y="2121" d="M1126 557q18 0 19 -14q0 -96 -69.5 -250t-202 -239t-293.5 -85q-233 0 -398.5 166t-165.5 397q0 236 166 406t398 170q111 0 210 -45t178 -129t127 -195.5t48 -146.5q0 -12 -21 -14l-215 -15q-8 0 -9 -1t9 -1zM1065 492l-350 4q-14 -49 -51 -76t-84 -27q-57 0 -99.5 41 t-42.5 98t42 99.5t100 42.5q74 0 114 -60l361 25q-43 174 -177.5 283.5t-297.5 109.5q-201 0 -344.5 -148.5t-143.5 -351.5q0 -201 143.5 -344t344.5 -143q186 0 326.5 125t158.5 322zM580 459q35 0 57 34.5t22 51.5q0 20 -24.5 41.5t-54.5 21.5q-31 0 -53.5 -22.5 t-22.5 -53.5t22.5 -52t53.5 -21z" />
<glyph unicode="d" horiz-adv-x="1185" vert-adv-y="2121" d="M1147 567q0 -264 -160 -431t-399 -167q-242 0 -408 165t-166 401q0 233 165 398t392 165q49 0 60.5 3t11.5 15v320h504v-869zM1071 567v793h-352v-780q0 -188 -135 -189q-57 0 -97.5 40t-40.5 95q0 59 36 96t87 37q49 0 97 -32v389q-61 6 -95 6q-197 0 -339 -143.5 t-142 -343.5q0 -205 143.5 -347.5t354.5 -142.5q207 0 345 145.5t138 376.5zM639 530q0 27 -20.5 39.5t-38.5 12.5q-25 0 -41.5 -16.5t-16.5 -39.5q0 -25 17.5 -42t44.5 -17q25 0 40 19t15 44z" />
<glyph unicode="e" horiz-adv-x="1134" vert-adv-y="2121" d="M1001 156q-121 -96 -219 -141.5t-200 -45.5q-238 0 -404 167t-166 407q0 238 165 401.5t409 163.5q233 0 395 -160t162 -395q0 -6 -8 -141h-322q-16 0 -16 -6q0 -2 8 -13zM1063 487q4 57 4 66q0 203 -140.5 341t-340.5 138q-211 0 -354.5 -142t-143.5 -347 q0 -207 144.5 -352.5t349.5 -145.5q160 0 311 121l-201 242q-49 -53 -100 -54q-66 0 -106 56.5t-40 148.5q0 90 42 144.5t108 54.5q98 0 117 -105h-181q-16 -47 -16 -88q0 -39 14 -78h533zM610 426h-32q-14 0 -15 -2q0 -2 10.5 -5t18.5 -3q6 0 16 3t10 5t-8 2z" />
<glyph unicode="f" horiz-adv-x="704" vert-adv-y="2121" d="M717 387h-158v-387h-504v897q0 266 176.5 422t485.5 156v-519q-78 0 -111 -10t-41 -41h152v-518zM641 463v366h-158q0 115 34 159t124 44v367q-227 0 -368.5 -139.5t-141.5 -362.5v-821h352v387h158z" />
<glyph unicode="g" horiz-adv-x="1181" vert-adv-y="2121" d="M1116 205q0 -279 -156.5 -455t-414.5 -176q-127 0 -269 45v447q0 20 -16 30q-115 63 -182.5 186.5t-67.5 272.5q0 229 164 391t401 162q258 0 399.5 -153.5t141.5 -442.5v-307zM1040 205v307q0 252 -120.5 386t-344.5 134q-205 0 -347 -139t-142 -338q0 -188 118 -315 t288 -127q74 0 147 26v322q-35 -16 -70 -17q-53 0 -89 35t-36 90q0 53 38 91t89 38q119 0 119 -147v-352q0 -117 -52 -180.5t-140 -63.5q-70 0 -146 39v-320q102 -33 199 -32q215 0 352 158.5t137 404.5zM567 518q31 0 46.5 7t15.5 26q0 86 -58 86q-27 0 -46 -19.5 t-19 -48.5q0 -51 61 -51zM489 35q43 0 69 13t-5 7q-27 -4 -59 -4q-74 0 -134 19l-12 3t-4 -1t48 -19.5t97 -17.5z" />
<glyph unicode="h" horiz-adv-x="1095" vert-adv-y="2121" d="M563 20v562q0 16 -16 16q-14 0 -15 -23v-555q0 -20 -22 -20h-451v1436h504v-344q55 16 103 16q168 0 268 -117t100 -321v-670h-450q-21 0 -21 20zM958 76v594q0 168 -78.5 265t-213.5 97q-88 0 -179 -65v393h-352v-1284h352v508q0 90 60 90q37 0 49 -22.5t12 -80.5v-495 h350z" />
<glyph unicode="i" horiz-adv-x="593" vert-adv-y="2121" d="M494 1059h55v-1059h-504v1059h55q14 0 15 6q0 6 -11 16q-51 61 -51 150q0 102 72 173t174 71t174 -71t72 -173q0 -86 -53 -154q-8 -10 -9 -14q1 -4 11 -4zM299 1061q70 0 120 50t50 120t-50 119t-120 49t-120 -49.5t-50 -118.5q0 -70 50 -120t120 -50zM473 76v907h-352 v-907h352z" />
<glyph unicode="j" horiz-adv-x="727" vert-adv-y="2121" d="M608 1055h68v-869q0 -305 -167 -477t-415 -172q-131 0 -278 49v508q133 -63 213 -63q143 0 143 209v815h49q14 0 15 6q0 4 -7 12q-59 70 -59 158q0 98 72.5 171t171.5 73q100 0 172.5 -73t72.5 -171q0 -92 -63 -162q-6 -6 -6 -8q0 -6 18 -6zM414 1061q70 0 120 50t50 120 q0 68 -50.5 118t-119.5 50q-70 0 -119 -49.5t-49 -118.5q0 -70 50 -120t118 -50zM600 186v793h-352v-739q0 -152 -50.5 -231t-146.5 -79q-70 0 -160 43v-331q102 -35 201 -35q207 0 357.5 147t150.5 432z" />
<glyph unicode="k" horiz-adv-x="1103" vert-adv-y="2121" d="M567 219v-219h-504v1436h504v-412q0 -16 4 -16q2 0 7 6l45 76h544l-266 -422l334 -668h-563l-94 223q-6 10 -9 10q-2 0 -2 -14zM502 594l221 -518h389l-297 596l215 342h-366l-160 -262q-6 -10 -8 -11q-4 0 -4 13v606h-353v-1284h353v516q0 10 2 10q4 0 8 -8z" />
<glyph unicode="l" horiz-adv-x="591" vert-adv-y="2121" d="M547 0h-504v1436h504v-1436zM471 76v1284h-352v-1284h352z" />
<glyph unicode="m" horiz-adv-x="1587" vert-adv-y="2121" d="M1044 18v562q0 29 -18 28q-18 0 -18 -26v-562q0 -20 -17 -20h-397q-16 0 -16 18v562q0 29 -19 28q-18 0 -18 -26v-562q0 -12 -3 -16t-18 -4h-446v653q0 190 128 322.5t312 132.5q158 0 283 -107q133 106 272 107q205 0 323.5 -129t118.5 -367v-612h-446q-21 0 -21 18z M1436 76v536q0 201 -98.5 310.5t-268.5 109.5q-137 0 -274 -133q-125 133 -281 133q-152 0 -258 -110.5t-106 -268.5v-577h352v504q0 104 57 104q31 0 44 -19.5t13 -82.5v-506h353v504q0 104 59 104q55 0 55 -102v-506h353z" />
<glyph unicode="n" horiz-adv-x="1107" vert-adv-y="2121" d="M563 12v592q0 10 -10 10q-8 0 -8 -10v-592q0 -12 -10 -12h-476v596q0 215 144.5 363.5t349.5 148.5q225 0 359.5 -142.5t134.5 -396.5v-569h-469q-15 0 -15 12zM971 76v493q0 219 -113 341t-305 122q-174 0 -296 -127t-122 -309v-520h352v528q0 80 66 80q68 0 68 -80 v-528h350z" />
<glyph unicode="o" horiz-adv-x="1144" vert-adv-y="2121" d="M573 1108q231 0 399.5 -169t168.5 -402q0 -231 -168 -399.5t-400 -168.5q-231 0 -399 168t-168 400q0 233 168 402t399 169zM573 45q201 0 346.5 145.5t145.5 346.5q0 203 -145.5 349t-346.5 146t-346 -146.5t-145 -348.5q0 -201 145 -346.5t346 -145.5zM573 680 q59 0 101.5 -42t42.5 -101t-42 -100.5t-102 -41.5q-59 0 -101 41t-42 101q0 59 42 101t101 42zM573 465q31 0 52.5 20.5t21.5 51.5t-21.5 52t-52.5 21t-52 -21.5t-21 -51.5q0 -31 21 -51.5t52 -20.5z" />
<glyph unicode="p" horiz-adv-x="1185" vert-adv-y="2121" d="M541 -59v-289h-504v858q0 262 158.5 430t400.5 168q240 0 406.5 -164t166.5 -399q0 -233 -163.5 -393t-411.5 -164q-29 0 -41 -8t-12 -39zM518 61q43 -8 88 -8q199 0 343.5 143.5t144.5 348.5t-144.5 346t-353.5 141t-346 -146.5t-137 -375.5v-782h352v768q0 186 135 186 q57 0 97 -39t40 -92q0 -57 -37.5 -97t-91.5 -40q-47 0 -90 35v-388zM547 559q0 -25 26.5 -37t49.5 -12q39 0 39 41q0 23 -18.5 39t-43.5 16q-23 0 -38 -14.5t-15 -32.5z" />
<glyph unicode="q" horiz-adv-x="1185" vert-adv-y="2121" d="M1147 -348h-504v289q0 31 -12.5 39t-40.5 8q-248 4 -412 163.5t-164 393.5q0 236 167 399.5t407 163.5q242 0 400.5 -168t158.5 -430v-858zM1071 -272v782q0 229 -137 375.5t-346 146.5t-353.5 -141t-144.5 -346t144.5 -348.5t343.5 -143.5q45 0 88 8v388 q-43 -35 -91 -35q-53 0 -91 40t-38 97q0 53 40 92t98 39q135 0 135 -186v-768h352zM561 510q23 0 49.5 12.5t26.5 36.5q0 18 -15.5 32.5t-37.5 14.5q-25 0 -43.5 -16.5t-18.5 -38.5q0 -41 39 -41z" />
<glyph unicode="r" horiz-adv-x="657" vert-adv-y="2121" d="M717 522q-94 55 -131 56q-31 0 -31 -50v-528h-504v596q0 238 132 375t366 137q80 0 168 -16v-570zM641 653v377q-57 10 -111 10q-182 0 -292.5 -121.5t-110.5 -322.5v-520h352v452q0 72 23.5 110t66.5 38q33 0 72 -23z" />
<glyph unicode="s" horiz-adv-x="747" vert-adv-y="2121" d="M788 586q-86 0 -110.5 -15.5t-28.5 -60.5q-43 -510 -565 -510h-125v524q98 0 137 14.5t43 73.5q8 160 29.5 228.5t82 133t151 99.5t200.5 35h186v-522zM713 662v370h-109q-98 -2 -173 -30.5t-126 -83t-66.5 -111.5t-23.5 -199q-6 -88 -43 -123.5t-137 -35.5v-373h49 q453 0 489 440q8 82 35 114t105 32z" />
<glyph unicode="t" horiz-adv-x="684" vert-adv-y="2121" d="M682 -31q-330 0 -499 152.5t-169 449.5v865h504v-379h158v-522h-146q18 -45 152 -46v-520zM606 45v369q-94 0 -129 42t-35 154h158v371h-158v379h-352v-789q0 -252 136 -389t380 -137z" />
<glyph unicode="u" horiz-adv-x="1107" vert-adv-y="2121" d="M1047 508q0 -254 -134.5 -396.5t-359.5 -142.5q-205 0 -349.5 148.5t-144.5 363.5v609h476q10 0 10 -13v-604q0 -10 8 -10q10 0 10 10v604q0 12 15 13h469v-582zM971 508v506h-350v-541q0 -80 -68 -80q-66 0 -66 80v541h-352v-533q0 -182 122 -309t296 -127 q193 0 305.5 122t112.5 341z" />
<glyph unicode="v" horiz-adv-x="788" vert-adv-y="2121" d="M946 1090l-553 -1240l-549 1240h502l51 -132l56 132h493zM829 1014h-325l-109 -254l-100 254h-334l432 -975z" />
<glyph unicode="w" horiz-adv-x="1587" vert-adv-y="2121" d="M1511 465q0 -238 -118.5 -367t-323.5 -129q-139 0 -272 107q-125 -106 -283 -107q-184 0 -312 132t-128 323v666h446q14 0 17.5 -4.5t3.5 -16.5v-573q0 -27 18 -27t19 29v573q0 18 16 19h397q16 0 17 -21v-573q0 -27 18 -27t18 29v573q0 18 21 19h446v-625zM1436 465v549 h-353v-518q0 -102 -55 -103q-59 0 -59 105v516h-353v-518q0 -63 -13 -83t-44 -20q-57 0 -57 105v516h-352v-590q0 -158 106 -268.5t258 -110.5q156 0 281 133q137 -133 274 -133q170 0 268.5 109.5t98.5 310.5z" />
<glyph unicode="x" horiz-adv-x="1081" vert-adv-y="2121" d="M1034 0h-465q-18 0 -18 14v353q0 12 -8 12q-10 0 -11 -17v-348q0 -14 -18 -14h-467v326q0 164 92 245q-92 86 -92 250v269h461q25 0 24 -21v-293q0 -10 11 -10q8 0 8 10v293q0 14 5 17.5t19 3.5h459v-283q0 -160 -71 -238q72 -80 71 -229v-340zM958 76v264 q0 88 -26.5 140t-85.5 89q59 39 85.5 91.5t26.5 146.5v207h-350v-238q0 -84 -69 -84q-29 0 -46.5 22.5t-17.5 61.5v238h-352v-193q0 -92 32.5 -147.5t108.5 -104.5q-76 -47 -108.5 -100t-32.5 -143v-250h352v297q0 82 66 82q68 0 67 -97v-282h350z" />
<glyph unicode="y" horiz-adv-x="1097" vert-adv-y="2121" d="M1036 176q0 -279 -171 -448.5t-406 -169.5q-131 0 -281 53v440q0 23 -14 39q-117 131 -117 334v666h465q20 0 20 -21v-551q0 -16 11 -16q8 0 8 14v555q0 18 18 19h467v-914zM961 176v838h-353v-496q0 -92 -65 -92q-68 0 -68 84v504h-352v-590q0 -154 85 -249t212 -95 q92 0 182 53q-55 -193 -217 -192q-61 0 -131 30v-307q100 -35 199 -35q199 0 353.5 146.5t154.5 400.5z" />
<glyph unicode="z" horiz-adv-x="1013" vert-adv-y="2121" d="M1036 1090l-286 -570h282v-520h-1100l285 571h-250v519h1069zM956 76v368h-329l286 570h-870v-367h297l-285 -571h901z" />
<glyph unicode="{" horiz-adv-x="751" vert-adv-y="2121" d="M743 -260h-262q-205 0 -286.5 67.5t-81.5 268.5v243q0 31 -16.5 45.5t-80.5 20.5v406q63 6 80 20t17 45v244q0 201 81.5 268.5t286.5 67.5h262v-392h-118h-45l-17 -24v-205q0 -94 -15.5 -143t-49.5 -84q35 -35 50 -84t15 -144v-204q0 -20 7.5 -22.5t54.5 -2.5h118v-391z M668 -184v239h-43q-84 0 -111 17.5t-27 83.5v204q0 102 -26.5 146.5t-79.5 81.5q53 35 79.5 79t26.5 148v205q0 66 27 83t111 17h43v240h-187q-164 0 -228.5 -53.5t-64.5 -206.5v-244q0 -127 -96 -135v-266q96 -8 96 -136v-243q0 -154 64.5 -207t228.5 -53h187z" />
<glyph unicode="|" vert-adv-y="2121" d="M762 -322h-500v1758h500v-1758zM686 -246v1606h-348v-1606h348z" />
<glyph unicode="}" horiz-adv-x="751" vert-adv-y="2121" d="M733 385q-63 -6 -79.5 -20.5t-16.5 -45.5v-243q0 -201 -82 -268.5t-287 -67.5h-262v391h119h43l18 25v204q0 94 15.5 143.5t50.5 84.5q-35 35 -50.5 84t-15.5 143v205q0 20 -7 22t-54 2h-119v392h262q205 0 287 -68t82 -268v-244q0 -31 16.5 -45t79.5 -20v-406zM657 455 v266q-96 8 -96 135v244q0 154 -64.5 207t-228.5 53h-186v-240h43q84 0 110.5 -17.5t26.5 -82.5v-205q0 -104 26.5 -148t80.5 -79q-53 -37 -80 -81t-27 -147v-204q0 -66 -26.5 -83.5t-110.5 -17.5h-43v-239h186q164 0 228.5 53t64.5 207v243q0 128 96 136z" />
<glyph unicode="~" horiz-adv-x="1366" vert-adv-y="2121" d="M1247 1432q-74 -186 -163 -283.5t-232 -97.5q-70 0 -246 69q-51 20 -71 21q-33 0 -62 -34t-67 -103l-277 231q80 195 170 289t211 94q104 0 254 -70q53 -25 78 -24q31 0 59.5 32.5t69.5 102.5zM1155 1405l-166 137q-33 -57 -59.5 -81.5t-61.5 -24.5q-43 0 -137 43 q-127 59 -215 59q-96 0 -166.5 -68.5t-130.5 -212.5l166 -137q31 57 57.5 82t63.5 25q41 0 129 -37q162 -63 217 -64q106 0 176 68t127 211z" />
<glyph unicode="&#xa0;" horiz-adv-x="499" vert-adv-y="2121" />
<glyph unicode="&#xa2;" vert-adv-y="2121" />
<glyph unicode="&#xa3;" vert-adv-y="2121" />
<glyph unicode="&#xa5;" vert-adv-y="2121" />
<glyph unicode="&#xa8;" horiz-adv-x="2048" vert-adv-y="2121" d="M1331 1503q104 0 180 -75.5t76 -180t-75.5 -180.5t-180 -76t-181.5 76t-77 180.5t77 180t181 75.5zM1331 1067q74 0 127 53.5t53 127t-53 126.5t-127 53t-128 -53t-54 -126.5t54 -127t128 -53.5zM735 1503q104 0 181 -75.5t77 -180t-76.5 -180.5t-181 -76t-180.5 76 t-76 180.5t76 180t180 75.5zM735 1067q74 0 128.5 53.5t54.5 127t-54.5 126.5t-128 53t-127 -53t-53.5 -126.5t53 -127t127 -53.5z" />
<glyph unicode="&#xa9;" vert-adv-y="2121" />
<glyph unicode="&#xab;" vert-adv-y="2121" />
<glyph unicode="&#xad;" horiz-adv-x="456" vert-adv-y="2121" d="M518 406h-579v399h579v-399zM442 481v248h-428v-248h428z" />
<glyph unicode="&#xae;" vert-adv-y="2121" />
<glyph unicode="&#xb4;" vert-adv-y="2121" />
<glyph unicode="&#xb8;" vert-adv-y="2121" />
<glyph unicode="&#xbb;" vert-adv-y="2121" />
<glyph unicode="&#x2000;" horiz-adv-x="829" vert-adv-y="0" />
<glyph unicode="&#x2001;" horiz-adv-x="1659" vert-adv-y="0" />
<glyph unicode="&#x2002;" horiz-adv-x="829" vert-adv-y="0" />
<glyph unicode="&#x2003;" horiz-adv-x="1659" vert-adv-y="0" />
<glyph unicode="&#x2004;" horiz-adv-x="553" vert-adv-y="0" />
<glyph unicode="&#x2005;" horiz-adv-x="414" vert-adv-y="0" />
<glyph unicode="&#x2006;" horiz-adv-x="276" vert-adv-y="0" />
<glyph unicode="&#x2007;" horiz-adv-x="276" vert-adv-y="0" />
<glyph unicode="&#x2008;" horiz-adv-x="207" vert-adv-y="0" />
<glyph unicode="&#x2009;" horiz-adv-x="331" vert-adv-y="0" />
<glyph unicode="&#x200a;" horiz-adv-x="92" vert-adv-y="0" />
<glyph unicode="&#x2010;" horiz-adv-x="456" vert-adv-y="2121" d="M518 406h-579v399h579v-399zM442 481v248h-428v-248h428z" />
<glyph unicode="&#x2011;" horiz-adv-x="456" vert-adv-y="2121" d="M518 406h-579v399h579v-399zM442 481v248h-428v-248h428z" />
<glyph unicode="&#x2012;" horiz-adv-x="456" vert-adv-y="2121" d="M518 406h-579v399h579v-399zM442 481v248h-428v-248h428z" />
<glyph unicode="&#x2013;" horiz-adv-x="901" vert-adv-y="2121" d="M963 406h-1024v399h1024v-399zM829 481v248h-757v-248h757z" />
<glyph unicode="&#x2014;" horiz-adv-x="2048" vert-adv-y="2121" d="M1827 858q121 0 171 -49t50 -195.5t-49 -195.5t-172 -49h-1606q-123 0 -172 49t-49 195.5t50 195.5t171 49h1606zM1827 444q80 0 112.5 33t32.5 136.5t-33.5 136t-111.5 32.5h-1606q-78 0 -111.5 -32.5t-33.5 -136t32.5 -136.5t112.5 -33h1606z" />
<glyph unicode="&#x2018;" horiz-adv-x="2048" vert-adv-y="2121" d="M1788 1366q0 -8 10 -18q47 -41 75 -100.5t28 -123.5q0 -123 -86 -214t-209 -91q-143 0 -226.5 91t-83.5 208q0 74 39 160l88 195q49 109 93.5 135t103.5 26t128 -45t69 -110q0 -31 -13 -62zM1606 895q92 0 155.5 68.5t63.5 160.5q0 57 -32 111.5t-79 81.5q-18 8 -18 27.5 t24 62.5q16 37 16.5 67.5t-41.5 57.5t-74 27t-52.5 -8.5t-34.5 -29t-60.5 -121t-74 -170t-27.5 -114.5q0 -88 62.5 -154.5t171.5 -66.5z" />
<glyph unicode="&#x2019;" horiz-adv-x="2048" vert-adv-y="2121" d="M770 1337q0 -72 -35 -153l-84 -193q-47 -111 -94 -142.5t-109.5 -31.5t-130 47t-67.5 111q0 31 12 61l19 49q0 10 -30 37t-56.5 85.5t-26.5 119.5q0 123 86 214t219 91t215 -89t82 -206zM455 893q29 0 56.5 14.5t80.5 136.5l80 181q25 57 24 110q0 88 -62.5 154.5 t-162.5 66.5t-163.5 -68.5t-63.5 -160.5q0 -57 31.5 -111.5t78.5 -80.5q18 -8 18.5 -28t-24.5 -63q-18 -37 -18 -67.5t42 -57t83 -26.5z" />
<glyph unicode="&#x201c;" horiz-adv-x="2048" vert-adv-y="2121" d="M1468 977q-8 0 -14 -8q-86 -113 -219 -113t-213 87t-80 192q0 66 43 159l86 189q41 92 79 122.5t92 30.5t121 -42t67 -89t-18.5 -84t-18.5 -45t21.5 -25.5t41.5 -43.5q4 -4 8 -4t11 12q37 90 78.5 173t61 104.5t46.5 32.5t71 11t110.5 -42t66.5 -89t-18.5 -85t-18.5 -45 t6 -11q45 -31 79 -93.5t34 -127.5q0 -117 -80 -202t-195 -85q-152 0 -237 115q-7 6 -11 6zM1716 932q84 0 141.5 62.5t57.5 148.5q0 53 -30 102t-73 72q-25 16 -24.5 44t20 65.5t19.5 62t-38 47.5t-62.5 23t-40 -8.5t-28.5 -28t-61.5 -123t-72 -164.5t-23.5 -100 q0 -80 56.5 -141.5t158.5 -61.5zM1237 932q84 0 141.5 62.5t57.5 148.5q0 53 -30 102t-73 72q-25 16 -24.5 44t20 65.5t19.5 62t-38 47.5t-62.5 23t-40 -8.5t-30 -29t-58.5 -116.5t-71.5 -165t-27.5 -107q0 -76 57.5 -138.5t159.5 -62.5z" />
<glyph unicode="&#x201d;" horiz-adv-x="2048" vert-adv-y="2121" d="M606 1186q-8 0 -12 -12q-29 -72 -70 -157t-60.5 -110.5t-49 -39t-75.5 -13.5t-111.5 41t-65.5 88t17.5 83t17.5 45t-30 32.5t-58.5 82t-28.5 120.5q0 117 80 201.5t194 84.5q152 0 236 -108q8 -10 14 -10.5t12 8.5q84 111 218 110q133 0 211.5 -81t78.5 -193 q0 -66 -30 -137l-86 -193q-53 -123 -93.5 -148.5t-91.5 -25.5t-116.5 41t-65.5 88t18.5 84t18.5 44t-19.5 20.5t-34 34t-18.5 20.5zM829 930q18 0 34 7t30 27.5t60 122t71 165t25 102.5q0 80 -56.5 141t-149.5 61t-150.5 -62t-57.5 -148q0 -53 28.5 -102.5t71.5 -72.5 q27 -16 27 -43.5t-19.5 -65.5t-19.5 -62.5t37.5 -47t68.5 -22.5zM350 930q27 0 47.5 16.5t79 148.5t75.5 175t17 84q0 80 -56 141t-149.5 61t-150.5 -62t-57 -148q0 -53 28.5 -102.5t71.5 -72.5q27 -16 27 -43.5t-19.5 -65.5t-19.5 -62.5t37.5 -47t68.5 -22.5z" />
<glyph unicode="&#x2026;" horiz-adv-x="2048" vert-adv-y="2121" d="M1659 887q111 0 193.5 -83t82.5 -193.5t-83 -193.5t-193.5 -83t-193.5 83t-83 193.5t83 193.5t194 83zM1659 410q82 0 141.5 59t59.5 141t-59.5 141.5t-141.5 59.5t-141.5 -59.5t-59.5 -141.5t59.5 -141t141.5 -59zM1020 887q111 0 193.5 -83t82.5 -193.5t-83 -193.5 t-193.5 -83t-193.5 83t-83 193.5t83 193.5t194 83zM1020 410q82 0 141.5 59t59.5 141t-59.5 141.5t-141.5 59.5t-141.5 -59.5t-59.5 -141.5t59.5 -141t141.5 -59zM381 887q111 0 193.5 -83t82.5 -193.5t-82.5 -193.5t-193.5 -83t-194 83t-83 193.5t83 193.5t194 83zM381 410 q82 0 141.5 59t59.5 141t-59.5 141.5t-141.5 59.5t-141.5 -59.5t-59.5 -141.5t59.5 -141t141.5 -59z" />
<glyph unicode="&#x202f;" horiz-adv-x="331" vert-adv-y="0" />
<glyph unicode="&#x205f;" horiz-adv-x="414" vert-adv-y="0" />
<glyph unicode="&#x25fc;" horiz-adv-x="1085" vert-adv-y="2170" d="M0 1085h1085v-1085h-1085v1085z" />
</font>
</defs>
</svg>
